# This file uses centimeters as units for non-parametric coordinates.

mtllib model_pillar_0.mtl
g default
v -9.093557 6.778265 -72.389717
v -25.751434 1.031648 -73.380913
v -21.209494 31.026962 -72.096893
v -26.357697 27.334843 -72.485512
v -9.390295 6.648271 -68.410591
v -25.452032 0.614685 -65.461143
v -19.682335 0.210526 -64.717285
v -20.196413 0.275739 -74.464844
v -24.316055 31.739904 -73.842133
v -11.741570 1.045767 -68.195374
v -12.055759 0.377892 -72.342682
v -22.060879 31.279470 -73.440872
v -20.781910 30.613783 -67.081085
v -26.310312 28.636818 -66.322502
v -22.339588 30.855320 -66.198723
v -21.111032 30.902271 -70.494064
v -20.389832 -2.600480 -71.730789
v -26.769875 -0.626134 -71.386269
v -28.780121 27.641287 -69.843361
v -28.001873 31.918009 -69.889137
v -23.717119 31.735004 -69.981079
v -20.220757 23.191893 -66.954514
v -20.255630 23.704403 -70.810555
v -20.918125 23.135920 -72.620178
v -22.414207 23.393112 -74.013466
v -23.659277 22.846256 -74.211700
v -27.159458 22.148430 -71.950424
v -30.074524 21.212814 -69.767220
v -27.435087 21.953171 -65.655762
v -23.903360 23.640568 -64.874329
v -22.180111 23.351009 -65.740295
v -19.435604 16.925625 -66.332565
v -17.907928 17.329363 -72.096550
v -19.995235 17.366554 -73.884949
v -21.901470 17.366554 -75.474960
v -23.623657 17.366554 -75.664078
v -26.802809 17.366554 -73.992714
v -29.909353 17.361820 -69.776955
v -27.374531 17.361820 -65.207344
v -23.716568 16.693676 -63.755814
v -21.768242 16.696280 -64.361778
v -12.162767 14.111025 -68.258385
v -10.454736 16.178679 -71.926132
v -16.200001 14.330106 -76.755920
v -21.428204 14.494934 -77.539650
v -27.717012 14.355716 -74.332924
v -31.669727 13.970764 -69.673401
v -28.778641 14.199476 -64.725494
v -23.111675 11.359806 -62.016781
v -17.280396 11.185562 -64.503479
v -14.911088 4.032077 -75.870949
v -22.419537 5.173874 -77.407997
v -28.529604 5.371581 -73.512924
v -31.334404 5.371581 -69.693130
v -28.702023 5.371582 -65.557190
v -21.787626 5.159059 -62.163326
v -16.380283 4.592686 -64.419006
vt 0.771306 0.585189
vt 0.815040 0.578731
vt 0.838717 0.715121
vt 0.814479 0.719776
vt 0.214523 0.701148
vt 0.191013 0.689830
vt 0.243699 0.574968
vt 0.864295 0.771384
vt 0.285441 0.589565
vt 0.142718 0.643871
vt 0.797871 0.744442
vt 0.927410 0.543276
vt 0.982067 0.529291
vt 0.141784 0.527075
vt 0.947579 0.657621
vt 0.908306 0.643107
vt 0.740089 0.612501
vt 0.204049 0.568957
vt 0.342461 0.642933
vt 0.236736 0.751528
vt 0.511661 0.257156
vt 0.458869 0.171139
vt 0.497330 0.107456
vt 0.743018 0.106490
vt 0.743179 0.025420
vt 0.887907 0.058921
vt 0.857911 0.109788
vt 0.868808 0.711934
vt 0.837969 0.561670
vt 0.929142 0.747354
vt 0.572409 0.102374
vt 0.679508 0.485854
vt 0.585377 0.242253
vt 0.322444 0.044206
vt 0.733510 0.468409
vt 0.783234 0.450208
vt 0.821740 0.443031
vt 0.897256 0.440564
vt 0.957952 0.444979
vt 0.538421 0.426769
vt 0.320371 0.175922
vt 0.176561 0.074075
vt 0.232023 0.168919
vt 0.065588 0.655524
vt 0.050747 0.517241
vt 0.109574 0.728402
vt 0.677706 0.375937
vt 0.773235 0.379960
vt 0.909348 0.376528
vt 0.984946 0.366538
vt 0.514727 0.238019
vt 0.647325 0.189282
vt 0.168127 0.755834
vt 0.342277 0.470271
vt 0.443845 0.545249
vt 0.014001 0.429919
vt 0.154712 0.438407
vt 0.239286 0.437061
vt 0.785065 0.210462
vt 0.920090 0.196256
vt 0.969839 0.186919
vt 0.375046 0.242073
vt 0.286874 0.253043
vt 0.280992 0.446524
vt 0.491689 0.401231
vt 0.572854 0.449475
vt 0.012951 0.347172
vt 0.169191 0.230436
vt 0.067411 0.179917
vt 0.369865 0.351402
vt 0.261472 0.343242
vt 0.151660 0.375379
vn 0.708717 0.149207 -0.689534
vn 0.464220 0.132339 -0.875777
vn 0.467061 0.054025 -0.882573
vn 0.762261 0.041871 -0.645914
vn 0.293274 0.955624 0.027791
vn 0.146066 0.989267 -0.003957
vn -0.001593 0.960910 0.276856
vn 0.283466 0.956753 0.065353
vn 0.516069 0.058408 0.854553
vn 0.308773 0.113498 0.944340
vn 0.393758 0.150159 0.906867
vn 0.556939 0.126597 0.820848
vn -0.699588 0.097117 -0.707916
vn -0.991944 0.125895 -0.014069
vn -0.980201 0.184966 0.070665
vn -0.673675 0.082934 -0.734360
vn 0.980950 0.181028 -0.070476
vn 0.840301 0.245373 -0.483412
vn 0.969934 0.086379 -0.227523
vn 0.990138 0.093654 -0.104188
vn 0.007523 0.162086 0.986748
vn -0.303413 0.125604 0.944544
vn -0.026804 0.158841 0.986940
vn -0.048420 -0.691677 -0.720582
vn 0.031332 -0.999185 0.025439
vn -0.236128 -0.971707 0.005491
vn -0.237456 -0.670048 -0.703314
vn -0.134236 0.034875 -0.990336
vn -0.326751 0.137412 -0.935068
vn -0.530967 0.134403 -0.836666
vn -0.543893 -0.004264 -0.839144
vn -0.711741 0.692651 -0.116870
vn -0.373034 0.822157 -0.430004
vn -0.723291 0.125232 -0.679093
vn -0.895672 0.159308 -0.415202
vn 0.516746 -0.843039 0.149193
vn 0.980220 0.177443 0.087647
vn 0.994528 0.096871 -0.039126
vn 0.914328 -0.404216 0.024791
vn 0.531687 -0.822613 0.201536
vn 0.914328 -0.404216 0.024791
vn 0.062019 -0.952577 0.297910
vn -0.192118 -0.927547 0.320541
vn -0.847928 0.115244 0.517433
vn -0.835665 0.183510 0.517676
vn -0.372059 0.718756 0.587335
vn -0.049351 0.906769 0.418729
vn 0.276879 0.956713 0.089651
vn 0.728650 0.623999 0.282302
vn 0.641236 0.758139 0.118495
vn 0.691592 0.432794 -0.578265
vn 0.355315 0.716592 -0.600205
vn 0.287215 0.569203 -0.770399
vn -0.325612 0.305441 -0.894809
vn -0.483980 0.246238 -0.839720
vn -0.744264 0.235661 -0.624928
vn -0.958621 0.273539 -0.078875
vn -0.846451 0.210244 0.489202
vn -0.309314 0.194696 0.930816
vn -0.010048 0.244902 0.969496
vn 0.427437 0.290962 0.855943
vn 0.478989 0.356695 0.802084
vn 0.665853 0.652356 0.362038
vn 0.659554 0.662028 0.355960
vn 0.547053 0.176392 -0.818303
vn 0.381908 0.193581 -0.903699
vn -0.144528 0.062720 -0.987511
vn -0.490907 0.040339 -0.870277
vn -0.779936 0.108278 -0.616421
vn -0.993589 0.090832 -0.067309
vn -0.854721 0.112088 0.506842
vn -0.405789 0.039765 0.913101
vn -0.119975 0.042933 0.991848
vn 0.448287 0.189822 0.873502
vn 0.486033 0.201857 0.850309
vn 0.927403 0.216185 0.305265
vn 0.927404 0.216185 0.305265
vn 0.572319 0.023498 -0.819694
vn 0.351281 -0.190525 -0.916680
vn -0.179240 -0.179179 -0.967351
vn -0.476900 -0.125956 -0.869886
vn -0.770012 -0.148018 -0.620623
vn -0.970376 -0.240869 -0.018766
vn -0.829121 -0.314017 0.462549
vn -0.413466 -0.187584 0.890987
vn -0.045980 -0.172112 0.984004
vn 0.442078 -0.087125 0.892735
vn 0.507526 0.064672 0.859206
vn 0.338062 -0.446237 -0.828605
vn -0.017658 -0.530711 -0.847369
vn -0.378679 -0.470348 -0.797104
vn -0.703072 -0.411839 -0.579723
vn -0.813309 -0.581288 -0.025178
vn -0.729204 -0.583049 0.358210
vn -0.302863 -0.387608 0.870652
vn 0.122786 -0.381269 0.916274
vn 0.463691 -0.259208 0.847232
s 1
g obj_pillar_0
usemtl lambert7SG
f 24/1/1 25/2/2 12/3/3 3/4/4
s 2
f 3/4/5 12/3/6 21/8/7 16/11/8
s 3
f 13/5/9 15/6/10 31/7/11 22/9/12
s 4
f 27/12/13 28/13/14 19/15/15 4/16/16
s 5
f 23/17/17 24/1/18 3/4/19 16/11/20
s 3
f 14/10/21 29/14/22 30/18/23
s 7
f 8/24/24 17/25/25 18/26/26 2/27/27
s 1
f 9/28/28 26/29/29 27/12/30 4/16/31
s 2
f 20/30/32 9/28/33 4/16/34 19/15/35
s 3
f 15/6/10 14/10/21 30/18/23 31/7/11
s 7
f 11/31/36 17/25/25 8/24/24
s 1
f 12/3/3 25/2/2 26/29/29 9/28/28
s 2
f 21/8/7 12/3/6 9/28/33 20/30/32
s 5
f 22/9/37 23/19/17 16/20/20 13/5/38
s 7
f 5/21/39 10/22/40 11/23/36 1/33/41
f 17/34/25 11/23/36 10/22/40 7/41/42
f 18/42/26 17/34/25 7/41/42 6/43/43
s 4
f 19/44/15 28/45/14 29/14/44 14/10/45
s 2
f 14/10/46 20/46/32 19/44/35
f 15/6/47 21/53/7 20/46/32 14/10/46
f 16/20/8 21/53/7 15/6/47 13/5/48
s 5
f 32/54/49 33/55/50 23/19/17 22/9/37
f 33/32/50 34/35/51 24/1/18 23/17/17
s 1
f 34/35/52 35/36/53 25/2/2 24/1/1
f 26/29/29 25/2/2 35/36/53 36/37/54
f 27/12/30 26/29/29 36/37/54 37/38/55
s 4
f 37/38/56 38/39/57 28/13/14 27/12/13
f 29/14/44 28/45/14 38/56/57 39/57/58
s 3
f 30/18/23 29/14/22 39/57/59 40/58/60
f 31/7/11 30/18/23 40/58/60 41/64/61
f 22/9/12 31/7/11 41/64/61 32/54/62
s 5
f 42/65/63 43/66/64 33/55/50 32/54/49
f 43/40/64 34/35/51 33/32/50
s 1
f 43/40/65 44/47/66 35/36/53 34/35/52
f 36/37/54 35/36/53 44/47/66 45/48/67
f 37/38/55 36/37/54 45/48/67 46/49/68
s 4
f 46/49/69 47/50/70 38/39/57 37/38/56
f 39/57/58 38/56/57 47/67/70 48/72/71
s 3
f 40/58/60 39/57/59 48/72/72 49/71/73
f 41/64/61 40/58/60 49/71/73 50/70/74
f 32/54/62 41/64/61 50/70/74 42/65/75
s 5
f 5/21/76 1/33/77 43/66/64 42/65/63
s 1
f 1/51/78 51/52/79 44/47/66 43/40/65
f 45/48/67 44/47/66 51/52/79 52/59/80
f 46/49/68 45/48/67 52/59/80 53/60/81
s 4
f 53/60/82 54/61/83 47/50/70 46/49/69
f 48/72/71 47/67/70 54/69/83 55/68/84
s 3
f 49/71/73 48/72/72 55/68/85 56/63/86
f 50/70/74 49/71/73 56/63/86 57/62/87
f 42/65/75 50/70/74 57/62/87 5/21/88
s 1
f 1/51/78 11/31/89 51/52/79
f 52/59/80 51/52/79 11/31/89 8/24/90
f 53/60/81 52/59/80 8/24/90 2/27/91
s 4
f 2/27/92 18/26/93 54/61/83 53/60/82
f 55/68/84 54/69/83 18/42/93 6/43/94
s 3
f 56/63/86 55/68/85 6/43/95 7/41/96
f 57/62/87 56/63/86 7/41/96 10/22/97
f 5/21/88 57/62/87 10/22/97
