# This file uses centimeters as units for non-parametric coordinates.

mtllib model_ship.mtl
g default
v 15.319613 16.356236 55.493778
v 15.700455 16.785042 55.270878
v 14.942969 16.793974 55.252151
v 15.805227 17.098822 60.520218
v 14.586417 17.113194 60.490089
v 15.913992 16.355543 60.522907
v 14.460166 16.372688 60.486969
v 15.334492 16.986065 55.192345
v 15.192324 17.465269 60.505066
v 15.175783 16.061752 60.504658
v 14.755205 17.050100 58.221943
v 15.251259 17.386055 58.394726
v 15.747257 17.038403 58.246468
v 15.244287 16.252251 58.152225
v 14.582667 17.200363 59.190189
v 15.227607 17.425035 59.229176
v 15.875244 17.185122 59.222141
v 15.872017 16.465555 59.210831
v 15.213486 16.129171 59.164330
v 14.569490 16.480913 59.178631
v 18.938135 16.615528 60.067173
v 18.906570 16.633249 59.214714
v 11.543246 16.720078 59.032692
v 11.469197 16.703602 59.882542
v 15.268009 17.139021 57.615585
v 16.777998 16.507750 59.350742
v 16.628687 16.509581 60.509216
v 16.372978 16.976118 60.502895
v 16.473049 16.962267 59.304188
v 13.658951 16.544529 59.273640
v 13.976453 16.991707 59.242474
v 14.017482 17.003895 60.444668
v 13.750849 16.543516 60.438076
v 17.090443 17.739178 59.199627
v 17.035833 17.739101 60.292721
v 13.383459 17.782890 59.107990
v 13.383984 17.782164 60.202446
vt 0.084215 0.000176
vt 0.084316 0.169221
vt 0.021234 0.169216
vt 0.048010 0.203653
vt 0.844465 0.349222
vt 0.758428 0.408001
vt 0.758165 0.161521
vt 0.872835 0.206698
vt 0.674634 0.353420
vt 0.643448 0.211705
vt 0.985844 0.229870
vt 0.946264 0.328988
vt 0.373516 0.203898
vt 0.520564 0.959448
vt 0.531558 0.239786
vt 0.373353 0.505082
vt 0.204498 0.505092
vt 0.149596 0.169217
vt 0.122847 0.198233
vt 0.289824 0.202536
vt 0.122847 0.442139
vt 0.455755 0.202444
vt 0.558876 0.505071
vt 0.454760 0.610563
vt 0.049624 0.502001
vt 0.200482 0.203957
vt 0.200482 0.502602
vt 0.373116 0.610563
vt 0.959632 0.470364
vt 0.292250 0.610563
vt 0.205482 0.610563
vt 0.461813 0.767328
vt 0.865897 0.518269
vt 0.574331 0.337107
vt 0.841458 0.471886
vt 0.959632 0.470364
vt 0.552990 0.868250
vt 0.841501 0.471885
vt 0.957758 0.324889
vt 0.866457 0.517634
vt 0.952919 0.559057
vt 0.878560 0.373201
vt 0.957756 0.324745
vt 0.878536 0.374184
vt 0.559348 0.610563
vt 0.049624 0.749761
vt 0.552985 0.868241
vt 0.122847 0.749874
vt 0.200483 0.750108
vt 0.520564 0.959416
vt 0.849587 0.520836
vt 0.701300 0.520758
vt 0.701878 0.704964
vt 0.849587 0.704967
vt 0.700983 0.840131
vt 0.849586 0.840128
vt 0.849586 0.840128
vt 0.700983 0.840131
vt 0.701877 0.704965
vt 0.849587 0.704967
vt 0.701273 0.520775
vt 0.849587 0.520837
vt 0.952853 0.559159
vt 0.897136 0.014488
vt 0.996379 0.014545
vt 0.372893 0.767432
vt 0.285548 0.767335
vt 0.996383 0.152802
vt 0.996383 0.152902
vt 0.996378 0.014416
vt 0.862732 0.152867
vt 0.897163 0.014502
vt 0.611678 0.152856
vt 0.617382 0.014769
vt 0.232578 0.152791
vt 0.204242 0.014722
vt 0.204313 0.014593
vt 0.232500 0.152891
vt 0.611658 0.152842
vt 0.617353 0.014755
vt 0.862714 0.152853
vt 0.122847 0.523880
vt 0.200483 0.604847
vt 0.122847 0.604799
vt 0.049624 0.604730
vt 0.899072 0.706848
vt 0.952853 0.559158
vt 0.865897 0.518270
vt 0.899073 0.706848
vt 0.860518 0.899713
vt 0.552977 0.868240
vt 0.520601 0.959456
vt 0.860455 0.899714
vt 0.899073 0.706848
vt 0.952919 0.559057
vt 0.866457 0.517635
vt 0.899072 0.706848
vt 0.860332 0.899693
vt 0.520601 0.959408
vt 0.552979 0.868240
vt 0.860414 0.899714
vn 0.018195 -0.431981 -0.901699
vn 0.017731 -0.431976 -0.901711
vn -0.043012 -0.430476 -0.901577
vn 0.385379 0.920260 -0.067854
vn 0.014008 0.996403 -0.083581
vn 0.013639 0.995348 -0.095376
vn 0.427516 0.896595 -0.115535
vn -0.006719 0.019576 0.999786
vn -0.024711 0.000001 0.999695
vn -0.024711 0.000001 0.999695
vn -0.009653 0.004540 0.999943
vn -0.817286 -0.575788 -0.022638
vn -0.817286 -0.575788 -0.022638
vn -0.817286 -0.575788 -0.022638
vn -0.817286 -0.575788 -0.022638
vn 0.809504 -0.586786 0.019656
vn 0.809504 -0.586786 0.019656
vn 0.809504 -0.586786 0.019656
vn 0.809504 -0.586786 0.019656
vn -0.353704 0.931273 -0.087316
vn -0.397818 0.907196 -0.136880
vn -0.042452 0.020257 0.998893
vn -0.039853 0.004958 0.999193
vn 0.074642 -0.431933 -0.898812
vn 0.016559 0.984814 -0.172820
vn -0.415685 0.898734 -0.139584
vn 0.014027 0.989790 -0.141845
vn 0.441278 0.889748 -0.116715
vn 0.421067 -0.904535 -0.067219
vn -0.009258 -0.995812 -0.090959
vn -0.005741 -0.992649 -0.120889
vn -0.444005 -0.891467 -0.090256
vn -0.904427 -0.265801 -0.333710
vn -0.904427 -0.265801 -0.333710
vn -0.904427 -0.265801 -0.333710
vn -0.904427 -0.265801 -0.333710
vn 0.412843 -0.908727 -0.061453
vn -0.010507 -0.996734 -0.080067
vn -0.436427 -0.895844 -0.083632
vn 0.123036 -0.991671 -0.038078
vn 0.123036 -0.991672 -0.038078
vn 0.072442 -0.997266 -0.014605
vn 0.079029 -0.996716 -0.017657
vn 0.134036 0.083171 0.987480
vn 0.080845 0.094239 0.992262
vn -0.074033 -0.050633 -0.995970
vn -0.097693 0.010964 -0.995156
vn 0.042731 -0.096413 -0.994424
vn -0.036149 -0.073882 -0.996612
vn 0.051446 -0.998664 -0.004881
vn 0.051446 -0.998664 -0.004881
vn 0.181796 0.112877 0.976836
vn 0.137326 0.990505 0.006457
vn 0.137326 0.990505 0.006457
vn 0.137326 0.990505 0.006457
vn 0.137326 0.990505 0.006457
vn 0.004191 -0.095962 -0.995376
vn 0.083590 -0.075295 -0.993652
vn -0.055041 -0.138218 -0.988871
vn 0.100560 -0.140050 -0.985025
vn -0.114097 0.993470 0.000240
vn -0.114097 0.993470 0.000240
vn -0.114097 0.993470 0.000240
vn -0.114097 0.993470 0.000240
vn -0.180658 0.086880 0.979701
vn -0.127527 0.096695 0.987110
vn -0.227117 0.117695 0.966729
vn -0.095114 -0.995290 -0.018747
vn -0.101527 -0.994587 -0.022121
vn -0.074662 -0.997177 -0.007999
vn -0.074662 -0.997177 -0.007999
vn -0.437980 0.898933 0.009648
vn -0.437980 0.898933 0.009648
vn -0.437980 0.898933 0.009648
vn -0.437981 0.898933 0.009648
vn 0.074001 0.204583 0.976048
vn 0.773346 -0.631507 0.055990
vn 0.773346 -0.631507 0.055990
vn 0.773346 -0.631507 0.055990
vn 0.773346 -0.631507 0.055990
vn -0.021674 -0.183301 -0.982818
vn -0.789833 -0.613077 0.017349
vn -0.789833 -0.613077 0.017349
vn -0.789833 -0.613077 0.017349
vn -0.789833 -0.613077 0.017349
vn 0.458032 0.888367 0.031795
vn 0.458032 0.888367 0.031795
vn 0.458032 0.888367 0.031795
vn 0.458032 0.888367 0.031795
vn 0.121932 -0.052946 -0.991125
vn 0.065879 -0.184331 -0.980654
vn -0.117290 0.206841 0.971319
vn 0.146967 0.008076 -0.989109
vn -0.144342 -0.988518 -0.044687
vn -0.144342 -0.988518 -0.044687
vn 0.012012 0.999612 0.025123
vn -0.419097 0.907870 0.011413
vn -0.419097 0.907870 0.011413
vn 0.010351 0.999632 0.025080
vn 0.433063 0.900728 0.033836
vn 0.433063 0.900728 0.033836
vn 0.913470 -0.286868 -0.288582
vn 0.913470 -0.286868 -0.288582
vn 0.913470 -0.286868 -0.288581
vn 0.913470 -0.286868 -0.288581
s 1
g obj_ship
usemtl ship:lambert2SG
f 1/1/1 8/2/2 2/3/3
s 2
f 2/4/4 8/19/5 25/21/6 13/25/7
s 3
f 4/5/8 9/6/9 10/7/10 6/8/11
s off
f 1/13/12 14/16/13 11/17/14 3/20/15
f 14/16/16 1/13/17 2/22/18 13/23/19
s 2
f 8/19/5 3/26/20 11/27/21 25/21/6
s 3
f 10/7/10 9/6/9 5/9/22 7/10/23
s 1
f 8/2/2 1/1/1 3/18/24
s 2
f 12/82/25 11/27/21 15/83/26 16/84/27
f 13/25/7 12/82/25 16/84/27 17/85/28
s 4
f 18/24/29 19/28/30 14/16/31
f 14/16/31 19/28/30 20/30/32
s off
f 20/30/33 15/31/34 11/17/35 14/16/36
s 4
f 6/32/37 10/66/38 19/28/30 18/24/29
f 20/30/32 19/28/30 10/66/38 7/67/39
s 5
f 6/65/40 18/68/41 26/71/42 27/72/43
s 3
f 4/5/8 6/8/11 27/11/44 28/12/45
s 6
f 15/35/46 20/36/47 30/39/48 31/42/49
s 2
f 25/21/6 11/27/21 12/82/25
f 13/25/7 25/21/6 12/82/25
s 5
f 27/72/43 26/71/42 22/73/50 21/74/51
s 3
f 28/14/45 27/37/44 21/90/52
s off
f 29/75/53 28/76/54 21/74/55 22/73/56
s 7
f 26/47/57 29/50/58 22/98/59
s 6
f 31/99/49 30/100/48 23/101/60
s off
f 32/77/61 31/78/62 23/79/63 24/80/64
s 3
f 33/91/65 32/92/66 24/93/67
s 8
f 30/81/68 33/64/69 24/80/70 23/79/71
s off
f 17/51/72 4/52/73 35/53/74 34/54/75
s 3
f 4/40/8 28/41/45 35/86/76
s off
f 28/55/77 29/56/78 34/54/79 35/53/80
s 6
f 15/33/46 31/63/49 36/94/81
s off
f 31/57/82 32/58/83 37/59/84 36/60/85
f 5/61/86 15/62/87 36/60/88 37/59/89
s 7
f 29/95/58 17/96/90 34/97/91
s 3
f 32/87/66 5/88/22 37/89/92
s 7
f 18/29/93 17/38/90 29/44/58 26/43/57
s 3
f 7/10/23 5/9/22 32/34/66 33/15/65
s 8
f 20/69/94 7/70/95 33/64/69 30/81/68
s 9
f 16/84/96 15/83/97 5/49/98 9/48/99
f 17/85/100 16/84/96 9/48/99 4/46/101
s off
f 18/24/102 14/16/103 13/23/104 17/45/105
